<mxfile host="65bd71144e">
    <diagram id="Gqo0PxEqj_XkqsHAhCtS" name="Page-1">
        <mxGraphModel dx="1998" dy="652" grid="1" gridSize="10" guides="1" tooltips="1" connect="1" arrows="1" fold="1" page="1" pageScale="1" pageWidth="850" pageHeight="1100" math="0" shadow="0">
            <root>
                <mxCell id="0"/>
                <mxCell id="1" parent="0"/>
                <mxCell id="2" value="" style="swimlane;childLayout=stackLayout;resizeParent=1;resizeParentMax=0;startSize=20;html=1;fillColor=#3399FF;fontColor=#000000;strokeColor=#006EAF;" vertex="1" parent="1">
                    <mxGeometry x="-660" y="30" width="900" height="460" as="geometry"/>
                </mxCell>
                <mxCell id="3" value="Controller" style="swimlane;startSize=20;html=1;fillColor=#CCCCFF;fontColor=#000000;strokeColor=#0a0a0a;gradientColor=none;swimlaneFillColor=#CCCCFF;" vertex="1" parent="2">
                    <mxGeometry y="20" width="200" height="440" as="geometry"/>
                </mxCell>
                <mxCell id="4" style="edgeStyle=none;html=1;exitX=0.5;exitY=1;exitDx=0;exitDy=0;exitPerimeter=0;entryX=0.5;entryY=0;entryDx=0;entryDy=0;entryPerimeter=0;strokeColor=#000000;fontColor=#000000;" edge="1" parent="3" source="5" target="7">
                    <mxGeometry relative="1" as="geometry"/>
                </mxCell>
                <mxCell id="5" value="&lt;span style=&quot;color: rgb(0, 0, 0);&quot;&gt;Initialisatie&lt;/span&gt;" style="shape=note;whiteSpace=wrap;html=1;backgroundOutline=1;darkOpacity=0.05;strokeColor=#36393d;fillColor=#ffff88;" vertex="1" parent="3">
                    <mxGeometry x="30" y="30" width="150" height="60" as="geometry"/>
                </mxCell>
                <mxCell id="6" style="edgeStyle=none;html=1;exitX=0.5;exitY=1;exitDx=0;exitDy=0;exitPerimeter=0;strokeColor=#000000;fontColor=#000000;" edge="1" parent="3" source="7" target="8">
                    <mxGeometry relative="1" as="geometry">
                        <mxPoint x="105" y="210" as="targetPoint"/>
                    </mxGeometry>
                </mxCell>
                <mxCell id="7" value="&lt;font color=&quot;#000000&quot;&gt;Waardering &lt;br&gt;toevoegen&lt;/font&gt;" style="shape=note;whiteSpace=wrap;html=1;backgroundOutline=1;darkOpacity=0.05;strokeColor=#36393d;fillColor=#ffff88;" vertex="1" parent="3">
                    <mxGeometry x="30" y="120" width="150" height="60" as="geometry"/>
                </mxCell>
                <mxCell id="8" value="Waardering tonen" style="shape=note;whiteSpace=wrap;html=1;backgroundOutline=1;darkOpacity=0.05;strokeColor=#36393d;fillColor=#ffff88;fontColor=#000000;labelBackgroundColor=none;" vertex="1" parent="3">
                    <mxGeometry x="30" y="310" width="150" height="60" as="geometry"/>
                </mxCell>
                <mxCell id="9" value="&lt;font color=&quot;#000000&quot;&gt;Business Logic&lt;/font&gt;" style="swimlane;startSize=20;html=1;fillColor=#6666FF;strokeColor=#000000;swimlaneFillColor=#6666FF;fontColor=#ffffff;" vertex="1" parent="2">
                    <mxGeometry x="200" y="20" width="500" height="440" as="geometry"/>
                </mxCell>
                <mxCell id="11" style="edgeStyle=none;html=1;entryX=0.5;entryY=0;entryDx=0;entryDy=0;entryPerimeter=0;strokeColor=#000000;fontColor=#000000;exitX=0.5;exitY=1;exitDx=0;exitDy=0;exitPerimeter=0;" edge="1" parent="9" source="33" target="17">
                    <mxGeometry relative="1" as="geometry">
                        <mxPoint x="130" y="310" as="sourcePoint"/>
                    </mxGeometry>
                </mxCell>
                <mxCell id="14" value="&lt;font color=&quot;#000000&quot;&gt;waardering&lt;br&gt;toevoegen&lt;br&gt;&lt;/font&gt;" style="shape=note;whiteSpace=wrap;html=1;backgroundOutline=1;darkOpacity=0.05;strokeColor=#36393d;fillColor=#ffff88;" vertex="1" parent="9">
                    <mxGeometry x="32.5" y="120" width="150" height="60" as="geometry"/>
                </mxCell>
                <mxCell id="17" value="&lt;font color=&quot;#000000&quot;&gt;bereken&lt;br&gt;gemiddelde&lt;/font&gt;" style="shape=note;whiteSpace=wrap;html=1;backgroundOutline=1;darkOpacity=0.05;strokeColor=#36393d;fillColor=#ffff88;" vertex="1" parent="9">
                    <mxGeometry x="32.5" y="310" width="150" height="60" as="geometry"/>
                </mxCell>
                <mxCell id="33" value="&lt;font color=&quot;#000000&quot;&gt;ophalen &lt;br&gt;waardering&lt;br&gt;&lt;/font&gt;" style="shape=note;whiteSpace=wrap;html=1;backgroundOutline=1;darkOpacity=0.05;strokeColor=#36393d;fillColor=#ffff88;" vertex="1" parent="9">
                    <mxGeometry x="32.5" y="220" width="150" height="60" as="geometry"/>
                </mxCell>
                <mxCell id="19" value="&lt;font color=&quot;#000000&quot;&gt;Model&lt;/font&gt;" style="swimlane;startSize=20;html=1;fillColor=#99CCFF;swimlaneFillColor=#99CCFF;strokeColor=#000000;" vertex="1" parent="2">
                    <mxGeometry x="700" y="20" width="200" height="440" as="geometry"/>
                </mxCell>
                <mxCell id="20" value="Â GERECHT INFO" style="swimlane;labelBackgroundColor=none;strokeColor=#10739e;fillColor=#b1ddf0;fontColor=#000000;startSize=23;" vertex="1" parent="19">
                    <mxGeometry x="40" y="40" width="140" height="170" as="geometry"/>
                </mxCell>
                <mxCell id="23" value="&lt;font color=&quot;#000000&quot;&gt;gerecht_info_id&lt;br&gt;record_type (O, B, W, F)&lt;br&gt;gerecht_id&lt;br&gt;user_id&lt;br&gt;datum&lt;br&gt;nummeriekveld&lt;br&gt;tekstveld&lt;br&gt;&lt;/font&gt;" style="text;html=1;strokeColor=none;fillColor=none;align=center;verticalAlign=middle;whiteSpace=wrap;rounded=0;" vertex="1" parent="19">
                    <mxGeometry x="40" y="70" width="140" height="130" as="geometry"/>
                </mxCell>
                <mxCell id="32" style="edgeStyle=none;html=1;entryX=0;entryY=0.615;entryDx=0;entryDy=0;entryPerimeter=0;strokeColor=#0d0c0c;" edge="1" parent="2" source="14" target="23">
                    <mxGeometry relative="1" as="geometry"/>
                </mxCell>
                <mxCell id="34" style="edgeStyle=none;html=1;entryX=0;entryY=0;entryDx=150;entryDy=30;entryPerimeter=0;strokeColor=#0d0c0c;" edge="1" parent="2" source="20" target="33">
                    <mxGeometry relative="1" as="geometry">
                        <Array as="points">
                            <mxPoint x="810" y="270"/>
                        </Array>
                    </mxGeometry>
                </mxCell>
                <mxCell id="35" style="edgeStyle=none;html=1;entryX=0;entryY=0.5;entryDx=0;entryDy=0;entryPerimeter=0;strokeColor=#0d0c0c;" edge="1" parent="2" source="7" target="14">
                    <mxGeometry relative="1" as="geometry"/>
                </mxCell>
                <mxCell id="29" style="edgeStyle=none;html=1;strokeColor=#0d0c0c;" edge="1" parent="1" source="28" target="5">
                    <mxGeometry relative="1" as="geometry"/>
                </mxCell>
                <mxCell id="28" value="" style="shape=actor;whiteSpace=wrap;html=1;fillColor=#66B2FF;strokeColor=#000000;" vertex="1" parent="1">
                    <mxGeometry x="-800" y="55" width="70" height="110" as="geometry"/>
                </mxCell>
                <mxCell id="30" value="" style="ellipse;whiteSpace=wrap;html=1;aspect=fixed;labelBackgroundColor=none;strokeColor=#0e8088;fillColor=#b0e3e6;strokeWidth=2;" vertex="1" parent="1">
                    <mxGeometry x="-790" y="365" width="50" height="50" as="geometry"/>
                </mxCell>
                <mxCell id="31" style="edgeStyle=none;html=1;entryX=1;entryY=0.5;entryDx=0;entryDy=0;strokeColor=#0d0c0c;" edge="1" parent="1" source="8" target="30">
                    <mxGeometry relative="1" as="geometry"/>
                </mxCell>
            </root>
        </mxGraphModel>
    </diagram>
</mxfile>